<svg version="1.2" xmlns="http://www.w3.org/2000/svg" viewBox="0 0 750 750" width="750" height="750"><style>.a{fill:none;stroke:#fff;stroke-linecap:round;stroke-linejoin:round;stroke-width:18}.b{fill:none;stroke:#000;paint-order:stroke fill markers;stroke-linejoin:round;stroke-width:10}.c{fill:#fff;stroke:#000;paint-order:stroke fill markers;stroke-miterlimit:100;stroke-width:10}</style><path fill-rule="evenodd" class="a" d="m81 205h417c25.4 0 46 20.6 46 46v417c0 25.4-20.6 46-46 46h-417c-25.4 0-46-20.6-46-46v-417c0-25.4 20.6-46 46-46z"/><path fill-rule="evenodd" class="b" d="m81 205h417c25.4 0 46 20.6 46 46v417c0 25.4-20.6 46-46 46h-417c-25.4 0-46-20.6-46-46v-417c0-25.4 20.6-46 46-46z"/><path class="c" d="m633.7 254.1h-41.5v-98.1h-97.4v-41h97.4v-97.4h41.5v97.4h97.5v41h-97.5z"/></svg>