<svg version="1.2" xmlns="http://www.w3.org/2000/svg" viewBox="0 0 512 512" width="512" height="512"><style>.a{fill:#c6c6c6}</style><path class="a" d="m495.3 134l-118.3-118.3c-19.6-19.6-51.3-19.6-70.9 0l-265.7 265.7c-19.6 19.6-19.6 51.4 0 71l61.1 61.1c9.5 9.5 22.1 14.7 35.5 14.7h114.2c13.4 0 26-5.2 35.5-14.7l25.6-25.7 183-182.9c19.5-19.6 19.5-51.4 0-70.9zm-232.3 255.9c-3.1 3.1-7.3 4.9-11.8 4.9h-114.2c-4.5 0-8.7-1.8-11.8-4.9l-61.2-61.2c-6.5-6.5-6.5-17.1 0-23.6l71-71 141.9 141.9zm208.6-208.6l-32.1 32.1-141.9-141.9 32.1-32.1c6.5-6.5 17.1-6.5 23.6 0l118.3 118.3c6.5 6.5 6.5 17.1 0 23.6z"/><path class="a" d="m495.3 477.5h-478.6c-9.2 0-16.7 7.5-16.7 16.8 0 9.2 7.5 16.7 16.7 16.7h478.6c9.2 0 16.7-7.5 16.7-16.7 0-9.3-7.5-16.8-16.7-16.8z"/></svg>