<svg version="1.2" xmlns="http://www.w3.org/2000/svg" viewBox="0 0 830 823" width="830" height="823">
	<title>keybby_light</title>
	<style>
		.s0 { fill: #ffffff;stroke: #ff0000;paint-order:stroke fill markers;stroke-linejoin: round;stroke-width: 36 } 
		.s1 { fill: #000000;stroke: #000000 } 
		.s2 { fill: #000000 } 
		.s3 { fill: #ffffff } 
		.s4 { fill: #fcd462 } 
		.s5 { fill: #64798a } 
		.s6 { fill: #2f4859 } 
		.s7 { fill: #dc8744 } 
	</style>
	<g id="Dossier 1">
		<g>
			<path fill-rule="evenodd" class="s0" d="m342 289h417c25.4 0 46 20.6 46 46v417c0 25.4-20.6 46-46 46h-417c-25.4 0-46-20.6-46-46v-417c0-25.4 20.6-46 46-46z"/>
		</g>
		<path class="s1" d="m403.6 538c-16.5-15.7-41.4-113.3-21.7-152.9 19.5-60.8 156.6 32.4 97.3 59.5-59.3 27 12.1 51.9 12.1 51.9-38 66.3-71.1 57.2-87.7 41.5z"/>
		<path class="s1" d="m617.6 537.9c-16.5-15.7-41.5-113.3-21.7-152.9 19.5-60.7 156.6 32.4 97.3 59.5-59.3 27 12 51.9 12 51.9-37.9 66.3-71.1 57.2-87.6 41.5z"/>
		<path class="s2" d="m462.4 715.7q-25.4-27.4-25.4-67.3 0-40 25.4-67.1 25.6-27.4 64.5-27.4 38.9 0 64.5 27.4 25.6 27.1 25.6 67.1 0 39.9-25.6 67.3-25.6 27.4-64.5 27.4-38.9 0-64.5-27.4zm9.2-126.5q-21.2 23.8-21.2 59.2 0 35.3 21.2 59.3 21.5 24.1 55.3 24.1 34 0 55.3-24.1 21.5-24 21.5-59.3 0-35.4-21.5-59.2-21.3-24-55.3-24-34.1 0-55.3 24z"/>
		<path class="s2" d="m582.3 597.5q1.7-2.3 3.7-3.3 2.1-1.1 3.7-0.4 4.1 1.6 5.3 3.8 1.2 2.3-0.3 6.1-0.4 1.1-4.1 5.4-8.1 9.9-19 24.9-2.6 3.4-4.4 5.9-1.7 2.7-3 4.4-7.6 11.1-12.2 16.5-1.4 1.5-3.6 1.9-2.2 0.2-4.2-0.5-2-0.8-3.7-2.5-1.6-1.7-1.9-3.2-0.9-8.7-1.5-23.4-0.4-14.7 0.3-25.3-14.7 15.8-27.4 31-0.7 0.9-1.7 2-0.8 1.1-1.8 2.2-1.6 1.5-3.5 1.9-2 0.4-3.9-0.4-2.1-0.8-3.8-2.4-1.7-1.8-1.9-3.2-0.5-3.3-0.2-9.5 0.5-6.1 1.5-17.1l1-11.3q0.7-11.1 2.5-22.4 1.8-11.2 2.6-13.3 1-2.5 4.1-2.9 3.1-0.6 5.6 0.4 1.4 0.6 2.6 2.1 1.2 1.5 0.8 3.8-4.5 23.9-7.9 56.5 6-6.2 13.8-15.3 8-9.1 15.4-17.8l2.5-3.1q1.2-1.6 3.5-1.8 2.5-0.3 4.5 0.5 2.6 1 3.8 3 1.1 1.9 1 3.7-0.1 0.5-0.8 16-0.7 15.6 0.3 32 5.1-6.1 14.5-20.3l4.9-7.1q8.1-11.4 12.9-17.5z"/>
		<g>
			<path class="s3" d="m191 655l125-56v119z"/>
			<path id="&gt;" class="s2" aria-label="&gt;"  d="m189.7 653.1v18.5l106.7 45.6v-19.7l-84.5-35.1 84.5-34.7v-19.7z"/>
		</g>
		<g>
			<path id="&gt; copy" class="s2" aria-label="&gt;"  d="m649.7 648.1v18.5l106.7 45.6v-19.7l-84.5-35.1 84.5-34.7v-19.7z"/>
		</g>
	</g>
	<g id="Ampoule">
		<g>
			<path class="s4" d="m133.1 58.2c-53 19.4-86.1 74-78.9 130 4.9 37.9 25.9 68.7 54.7 87.4 32.2 21 54.4 54.3 63.6 91.6l0.7 2.9 96.3-23.7-0.7-2.9c-9.4-38.3-3.1-78.4 15.3-113.3 13.5-25.6 18.1-56.1 10.6-86.4-17.2-70.2-91.8-111.2-161.6-85.6z"/>
			<path fill-rule="evenodd" class="s4" d="m140.4 8.3l5.3 21.5-9.7 2.4-5.3-21.5z"/>
			<path fill-rule="evenodd" class="s4" d="m338.1 127.9l2.4 9.8-21.5 5.3-2.4-9.8z"/>
			<path fill-rule="evenodd" class="s4" d="m32.6 203.2l2.4 9.7-21.6 5.3-2.4-9.8z"/>
			<path fill-rule="evenodd" class="s4" d="m267.2 31.5l-11.4 19-8.6-5.2 11.5-18.9z"/>
			<path fill-rule="evenodd" class="s4" d="m104.3 300.8l-11.4 18.9-8.6-5.1 11.5-19z"/>
			<path fill-rule="evenodd" class="s4" d="m322.5 255.9l-5.2 8.6-18.9-11.5 5.1-8.5z"/>
			<path fill-rule="evenodd" class="s4" d="m53.2 93.1l-5.2 8.5-18.9-11.4 5.2-8.6z"/>
		</g>
		<path class="s5" d="m269.5 346.4l-96.3 23.7 13 52.8c0.4 1.5 1.9 2.5 3.4 2.1l90.9-22.4c1.5-0.3 2.4-1.9 2-3.4 0 0-13-52.8-13-52.8z"/>
		<g>
			<path class="s6" d="m268.3 346.7l-92.5 33.8c-3.2 1.2-4.8 4.7-3.7 7.8 1.2 3.2 4.7 4.8 7.8 3.7l92.5-33.9c3.2-1.1 4.8-4.6 3.7-7.8-1.2-3.1-4.7-4.7-7.8-3.6z"/>
			<path class="s6" d="m273.3 367.1l-92.5 33.8c-3.2 1.2-4.8 4.7-3.6 7.8 1.1 3.2 4.6 4.8 7.8 3.7l92.4-33.8c3.2-1.2 4.8-4.7 3.7-7.8-1.2-3.2-4.7-4.8-7.8-3.7z"/>
			<path class="s6" d="m278.3 387.5l-92.5 33.9c-3.2 1.1-4.8 4.6-3.6 7.8 1.1 3.1 4.6 4.7 7.8 3.6l92.5-33.8c3.1-1.2 4.8-4.7 3.6-7.8-1.2-3.2-4.6-4.8-7.8-3.7z"/>
			<path class="s6" d="m213.1 419.1c1.1 4.6 11.9 6 24 3 12.1-3 21-9.2 19.8-13.8z"/>
		</g>
		<path fill-rule="evenodd" class="s7" d="m247 351.9l-7.7 0.9-23.6-197.5-16.5 22.9-26.2-16.3-15.6 26.5-25.2-12.6 70.7 186-7.2 2.7-77.8-204.4 36.5 18.2 16-27.2 26.7 16.7 23.9-33.1z"/>
	</g>
</svg>