<svg width="659" height="549" viewBox="0 0 659 549" fill="none" xmlns="http://www.w3.org/2000/svg">
<g filter="url(#filter0_d_0_1)">
<rect x="125" y="15" width="509" height="509" rx="46" fill="white"/>
</g>
<path d="M232.638 263.98C216.115 248.277 191.16 150.708 210.908 111.063C230.371 50.3379 367.526 143.51 308.212 170.563C248.898 197.616 320.251 222.455 320.251 222.455C282.322 288.809 249.161 279.683 232.638 263.98Z" fill="black" stroke="black"/>
<path d="M446.618 263.905C430.096 248.202 405.14 150.633 424.888 110.988C444.352 50.2634 581.506 143.435 522.192 170.488C462.878 197.541 534.231 222.38 534.231 222.38C496.303 288.734 463.141 279.609 446.618 263.905Z" fill="black" stroke="black"/>
<path d="M291.384 441.68C274.488 423.419 266.04 400.976 266.04 374.352C266.04 347.728 274.488 325.371 291.384 307.28C308.451 289.019 329.955 279.888 355.896 279.888C381.837 279.888 403.341 289.019 420.408 307.28C437.475 325.371 446.008 347.728 446.008 374.352C446.008 400.976 437.475 423.419 420.408 441.68C403.341 459.941 381.837 469.072 355.896 469.072C329.955 469.072 308.451 459.941 291.384 441.68ZM300.6 315.216C286.435 331.088 279.352 350.8 279.352 374.352C279.352 397.904 286.435 417.701 300.6 433.744C314.936 449.787 333.368 457.808 355.896 457.808C378.595 457.808 397.027 449.787 411.192 433.744C425.528 417.701 432.696 397.904 432.696 374.352C432.696 350.8 425.528 331.088 411.192 315.216C397.027 299.173 378.595 291.152 355.896 291.152C333.197 291.152 314.765 299.173 300.6 315.216Z" fill="black"/>
<path d="M411.265 323.463C412.394 321.98 413.637 320.909 414.995 320.248C416.384 319.509 417.634 319.356 418.747 319.791C421.449 320.848 423.194 322.125 423.983 323.625C424.771 325.124 424.668 327.145 423.674 329.688C423.394 330.404 422.045 332.213 419.628 335.116C414.212 341.703 407.859 349.985 400.569 359.962C398.859 362.225 397.393 364.218 396.171 365.939C395.028 367.691 394.048 369.14 393.233 370.288C388.126 377.728 384.049 383.235 381.002 386.808C380.06 387.814 378.852 388.442 377.38 388.691C375.94 388.861 374.544 388.681 373.193 388.153C371.842 387.625 370.599 386.819 369.466 385.734C368.443 384.601 367.808 383.528 367.563 382.516C366.994 376.705 366.513 368.912 366.12 359.138C365.837 349.315 365.929 340.876 366.397 333.821C356.592 344.372 347.473 354.689 339.043 364.77C338.525 365.392 337.936 366.078 337.276 366.828C336.727 367.529 336.123 368.255 335.463 369.005C334.441 369.979 333.273 370.622 331.96 370.934C330.678 371.166 329.402 371.033 328.13 370.536C326.7 369.977 325.417 369.155 324.284 368.07C323.181 366.906 322.547 365.834 322.381 364.852C322.031 362.7 321.975 359.563 322.212 355.441C322.529 351.35 323.023 345.634 323.694 338.291L324.675 326.993C325.188 319.589 326.041 312.134 327.234 304.63C328.427 297.125 329.288 292.697 329.816 291.346C330.468 289.677 331.815 288.692 333.857 288.39C335.93 288.01 337.801 288.146 339.47 288.798C340.424 289.171 341.293 289.877 342.078 290.917C342.893 291.877 343.18 293.135 342.939 294.69C339.91 310.639 337.261 329.485 334.991 351.229C338.984 347.109 343.595 341.994 348.824 335.884C354.132 329.805 359.244 323.878 364.159 318.103L366.749 314.993C367.533 313.925 368.685 313.322 370.205 313.183C371.836 312.996 373.327 313.166 374.678 313.695C376.426 314.378 377.686 315.375 378.457 316.684C379.228 317.993 379.57 319.226 379.484 320.384C379.439 320.733 379.18 326.083 378.707 336.435C378.233 346.786 378.324 357.45 378.981 368.426C382.403 364.359 387.247 357.594 393.512 348.132L398.376 340.963C403.815 333.378 408.111 327.544 411.265 323.463Z" fill="black"/>
<g filter="url(#filter1_d_0_1)">
<path d="M20 380.954L145 325V444L20 380.954Z" fill="white"/>
</g>
<g filter="url(#filter2_d_0_1)">
<path d="M497 380.954L622 325V444L497 380.954Z" fill="white"/>
</g>
<defs>
<filter id="filter0_d_0_1" x="110" y="0" width="549" height="549" filterUnits="userSpaceOnUse" color-interpolation-filters="sRGB">
<feFlood flood-opacity="0" result="BackgroundImageFix"/>
<feColorMatrix in="SourceAlpha" type="matrix" values="0 0 0 0 0 0 0 0 0 0 0 0 0 0 0 0 0 0 127 0" result="hardAlpha"/>
<feMorphology radius="20" operator="dilate" in="SourceAlpha" result="effect1_dropShadow_0_1"/>
<feOffset dx="5" dy="5"/>
<feComposite in2="hardAlpha" operator="out"/>
<feColorMatrix type="matrix" values="0 0 0 0 1 0 0 0 0 0 0 0 0 0 0 0 0 0 1 0"/>
<feBlend mode="normal" in2="BackgroundImageFix" result="effect1_dropShadow_0_1"/>
<feBlend mode="normal" in="SourceGraphic" in2="effect1_dropShadow_0_1" result="shape"/>
</filter>
<filter id="filter1_d_0_1" x="0" y="325" width="145" height="119" filterUnits="userSpaceOnUse" color-interpolation-filters="sRGB">
<feFlood flood-opacity="0" result="BackgroundImageFix"/>
<feColorMatrix in="SourceAlpha" type="matrix" values="0 0 0 0 0 0 0 0 0 0 0 0 0 0 0 0 0 0 127 0" result="hardAlpha"/>
<feOffset dx="-20"/>
<feComposite in2="hardAlpha" operator="out"/>
<feColorMatrix type="matrix" values="0 0 0 0 0 0 0 0 0 0 0 0 0 0 0 0 0 0 1 0"/>
<feBlend mode="normal" in2="BackgroundImageFix" result="effect1_dropShadow_0_1"/>
<feBlend mode="normal" in="SourceGraphic" in2="effect1_dropShadow_0_1" result="shape"/>
</filter>
<filter id="filter2_d_0_1" x="477" y="325" width="145" height="119" filterUnits="userSpaceOnUse" color-interpolation-filters="sRGB">
<feFlood flood-opacity="0" result="BackgroundImageFix"/>
<feColorMatrix in="SourceAlpha" type="matrix" values="0 0 0 0 0 0 0 0 0 0 0 0 0 0 0 0 0 0 127 0" result="hardAlpha"/>
<feOffset dx="-20"/>
<feComposite in2="hardAlpha" operator="out"/>
<feColorMatrix type="matrix" values="0 0 0 0 0 0 0 0 0 0 0 0 0 0 0 0 0 0 1 0"/>
<feBlend mode="normal" in2="BackgroundImageFix" result="effect1_dropShadow_0_1"/>
<feBlend mode="normal" in="SourceGraphic" in2="effect1_dropShadow_0_1" result="shape"/>
</filter>
</defs>
</svg>
