<svg version="1.2" xmlns="http://www.w3.org/2000/svg" viewBox="0 0 988 988" width="988" height="988"><style>.a{fill:#c6c6c6}</style><path class="a" d="m132.1 855.4c43 43 93.2 76.3 149.3 99.1 54.1 21.9 111.1 33 169.6 33 58.5 0 115.6-11.1 169.6-33 56-22.7 106.2-56 149.3-99.1l60.9-60.9-176.8-176.8-60.9 60.9c-38 38-88.4 58.9-142.1 58.9-53.7 0-104.2-20.9-142.1-58.9-78.4-78.4-78.4-205.9 0-284.3l60.9-60.9-176.8-176.7-60.9 60.9c-43 43-76.3 93.2-99.1 149.3-21.9 54.1-33 111.1-33 169.6 0 58.5 11.1 115.6 33 169.6 22.7 56.1 56 106.3 99.1 149.3z"/><path class="a" d="m878 478.6c-23.4-23.4-61.4-23.4-84.9 0l-82.6 82.6 176.8 176.8 82.6-82.6c23.4-23.4 23.4-61.4 0-84.9z"/><path class="a" d="m332.1 17.6l-82.6 82.6 176.8 176.8 82.6-82.6c23.4-23.4 23.4-61.4 0-84.9l-91.9-91.9c-23.5-23.5-61.4-23.5-84.9 0z"/></svg>