<svg version="1.2" xmlns="http://www.w3.org/2000/svg" viewBox="0 0 1009 868" width="1009" height="868">
	<title>move</title>
	<style>
		.s0 { fill: #c6c6c6 } 
		.s1 { fill: #5d5d5d } 
	</style>
	<path class="s0" d="m830 505c36 0 36 32 36 72l143-143-143-143c0 24 4 72-36 72h-144v142z"/>
	<path class="s0" d="m575 725.2h107.2l-178.6 142.8-178.6-142.8h107.2v-107.2h142.8z"/>
	<path id="Layer copy" class="s0" d="m179 505c-36 0-36 32-36 72l-143-143 143-143c0 24-4 72 36 72h144v142z"/>
	<path id="Layer copy 2" class="s0" d="m575 142.8h107.2l-178.6-142.8-178.6 142.8h107.2v107.2h142.8z"/>
	<g id="Arrows">
	</g>
	<g id="Key">
		<path fill-rule="evenodd" class="s0" d="m344.2 240h318.6c19.5 0 35.2 15.7 35.2 35.2v318.6c0 19.5-15.7 35.2-35.2 35.2h-318.6c-19.5 0-35.2-15.7-35.2-35.2v-318.6c0-19.5 15.7-35.2 35.2-35.2z"/>
		<path class="s1" d="m399.2 422.8c-12.6-12-31.7-86.6-16.6-116.9 14.8-46.4 119.7 24.8 74.3 45.5-45.3 20.6 9.2 39.6 9.2 39.6-28.9 50.7-54.3 43.8-66.9 31.8z"/>
		<path class="s1" d="m562.7 422.7c-12.6-12-31.7-86.6-16.6-116.9 14.9-46.4 119.7 24.8 74.4 45.5-45.4 20.7 9.2 39.7 9.2 39.7-29 50.7-54.4 43.7-67 31.7z"/>
		<path class="s1" d="m444.1 558.6q-19.4-21-19.4-51.5 0-30.5 19.4-51.2 19.5-21 49.3-21 29.7 0 49.3 21 19.5 20.7 19.5 51.2 0 30.5-19.5 51.5-19.6 20.9-49.3 20.9-29.8 0-49.3-20.9zm7-96.7q-16.2 18.2-16.2 45.2 0 27 16.2 45.4 16.5 18.4 42.3 18.4 26 0 42.2-18.4 16.5-18.4 16.5-45.4 0-27-16.5-45.2-16.2-18.4-42.2-18.4-26 0-42.3 18.4z"/>
		<path class="s1" d="m535.7 468.2q1.3-1.7 2.8-2.4 1.6-0.9 2.9-0.4 3.1 1.2 4 3 0.9 1.7-0.2 4.6-0.3 0.8-3.1 4.1-6.2 7.6-14.6 19-1.9 2.6-3.3 4.6-1.4 2-2.3 3.3-5.8 8.5-9.3 12.6-1.1 1.2-2.8 1.5-1.7 0.2-3.2-0.4-1.6-0.6-2.8-1.9-1.2-1.3-1.5-2.4-0.7-6.7-1.1-17.9-0.3-11.3 0.2-19.4-11.2 12.1-20.9 23.7-0.6 0.7-1.4 1.6-0.6 0.8-1.3 1.6-1.2 1.1-2.7 1.5-1.5 0.3-2.9-0.3-1.7-0.6-3-1.9-1.2-1.3-1.4-2.4-0.4-2.5-0.2-7.2 0.4-4.7 1.2-13.1l0.7-8.7q0.6-8.5 2-17.1 1.3-8.6 1.9-10.1 0.8-1.9 3.1-2.3 2.4-0.4 4.3 0.3 1.1 0.5 2 1.7 1 1.1 0.7 2.8-3.5 18.3-6.1 43.2 4.6-4.7 10.6-11.7 6.1-6.9 11.7-13.6l2-2.3q0.9-1.3 2.6-1.4 1.9-0.2 3.4 0.4 2 0.7 2.9 2.2 0.9 1.5 0.8 2.9 0 0.4-0.6 12.2-0.5 11.9 0.2 24.5 3.9-4.7 11.1-15.5l3.7-5.5q6.3-8.7 9.9-13.4z"/>
	</g>
</svg>