<svg version="1.2" xmlns="http://www.w3.org/2000/svg" viewBox="0 0 1009 868" width="1009" height="868">
	<title>move</title>
	<style>
		.s0 { fill: #c6c6c6 } 
		.s1 { fill: #5d5d5d } 
	</style>
	<g id="arrow-side copy">
		<path class="s0" d="m759 364v142h71c40 0 36 48 36 72l143-143-143-143c0 40 0 72-36 72z"/>
	</g>
	<g id="arrow-top">
		<path class="s0" d="m576.4 143.8h107.2l-178.6-142.8-178.6 142.8h107.2v36.2h142.8z"/>
	</g>
	<g id="arrow-side">
		<path class="s0" d="m250 506v-142h-71c-40 0-36-48-36-72l-143 143 143 143c0-40 0-72 36-72z"/>
	</g>
	<g id="arrow-top copy">
		<path class="s0" d="m576.4 725.2h107.2l-178.6 142.8-178.6-142.8h107.2v-36.2h142.8z"/>
	</g>
	<g>
		<path fill-rule="evenodd" class="s0" d="m296 180h417c25.4 0 46 20.6 46 46v417c0 25.4-20.6 46-46 46h-417c-25.4 0-46-20.6-46-46v-417c0-25.4 20.6-46 46-46z"/>
	</g>
	<g>
		<path class="s1" d="m367 419.1c-16.5-15.7-41.5-113.2-21.7-152.9 19.4-60.7 156.6 32.5 97.3 59.5-59.3 27.1 12 51.9 12 51.9-37.9 66.4-71.1 57.3-87.6 41.5z"/>
		<path class="s1" d="m581 419.1c-16.5-15.7-41.5-113.3-21.8-152.9 19.5-60.8 156.7 32.4 97.4 59.5-59.4 27 12 51.8 12 51.8-37.9 66.4-71.1 57.3-87.6 41.6z"/>
		<path class="s1" d="m425.7 596.8q-25.3-27.3-25.3-67.3 0-39.9 25.3-67.1 25.6-27.3 64.6-27.3 38.9 0 64.5 27.3 25.6 27.2 25.6 67.1 0 40-25.6 67.3-25.6 27.4-64.5 27.4-39 0-64.6-27.4zm9.3-126.4q-21.3 23.8-21.3 59.1 0 35.3 21.3 59.4 21.5 24.1 55.3 24.1 34 0 55.3-24.1 21.5-24.1 21.5-59.4 0-35.3-21.5-59.1-21.3-24.1-55.3-24.1-34.1 0-55.3 24.1z"/>
		<path class="s1" d="m545.6 478.6q1.7-2.2 3.8-3.2 2-1.1 3.7-0.4 4.1 1.5 5.2 3.8 1.2 2.2-0.3 6.1-0.4 1-4 5.4-8.1 9.9-19.1 24.8-2.5 3.4-4.4 6-1.7 2.6-2.9 4.4-7.7 11.1-12.2 16.5-1.5 1.5-3.7 1.9-2.1 0.2-4.1-0.6-2.1-0.8-3.8-2.4-1.5-1.7-1.9-3.2-0.8-8.7-1.4-23.4-0.4-14.7 0.3-25.3-14.7 15.8-27.4 30.9-0.8 1-1.8 2.1-0.8 1-1.8 2.2-1.5 1.4-3.5 1.9-1.9 0.4-3.8-0.4-2.2-0.8-3.9-2.5-1.6-1.7-1.9-3.2-0.5-3.2-0.1-9.4 0.4-6.1 1.5-17.1l0.9-11.3q0.8-11.1 2.6-22.4 1.8-11.3 2.6-13.3 1-2.5 4-2.9 3.1-0.6 5.6 0.4 1.5 0.5 2.6 2.1 1.3 1.4 0.9 3.8-4.5 23.9-7.9 56.5 5.9-6.2 13.8-15.3 7.9-9.2 15.3-17.8l2.6-3.1q1.2-1.6 3.5-1.8 2.4-0.3 4.4 0.5 2.7 1 3.8 3 1.2 1.9 1 3.7 0 0.5-0.7 16-0.7 15.5 0.2 32 5.2-6.1 14.6-20.3l4.8-7.2q8.2-11.3 12.9-17.5z"/>
	</g>
</svg>