<svg version="1.2" xmlns="http://www.w3.org/2000/svg" viewBox="0 0 391 391" width="391" height="391">
	<title>zoom+</title>
	<style>
		.s0 { fill: #c6c6c6 } 
	</style>
	<path class="s0" d="m379.7 326.6l-114.4-114.4c30.9-54.2 23.2-124.5-23-170.7-55.3-55.3-145.4-55.3-200.8 0-55.3 55.4-55.3 145.5 0 200.8 46.2 46.2 116.5 53.9 170.7 23l114.4 114.4c14.6 14.7 38.5 14.7 53.1 0 14.7-14.6 14.7-38.5 0-53.1zm-165.6-112.5c-39.8 39.7-104.5 39.7-144.3 0-39.8-39.8-39.8-104.5 0-144.3 39.8-39.8 104.5-39.8 144.3 0 39.7 39.8 39.7 104.5 0 144.3z"/>
	<path id="+
" class="s0" aria-label="+
"  d="m133.2 70.9h18.5v61.2h61.2v18.7h-61.2v61.2h-18.5v-61.2h-61.1v-18.7h61.1z"/>
</svg>