<svg version="1.2" xmlns="http://www.w3.org/2000/svg" viewBox="0 0 659 549" width="659" height="549">
	<title>keybby</title>
	<style>
		.s0 { fill: #ffffff;stroke: #ff0000;paint-order:stroke fill markers;stroke-linejoin: round;stroke-width: 36 } 
		.s1 { fill: #000000;stroke: #000000 } 
		.s2 { fill: #000000 } 
		.s3 { fill: #ffffff } 
	</style>
	<g>
		<path fill-rule="evenodd" class="s0" d="m171 15h417c25.4 0 46 20.6 46 46v417c0 25.4-20.6 46-46 46h-417c-25.4 0-46-20.6-46-46v-417c0-25.4 20.6-46 46-46z"/>
	</g>
	<path class="s1" d="m232.6 264c-16.5-15.7-41.4-113.3-21.7-152.9 19.5-60.8 156.6 32.4 97.3 59.5-59.3 27 12.1 51.9 12.1 51.9-38 66.3-71.1 57.2-87.7 41.5z"/>
	<path class="s1" d="m446.6 263.9c-16.5-15.7-41.5-113.3-21.7-152.9 19.5-60.7 156.6 32.4 97.3 59.5-59.3 27 12 51.9 12 51.9-37.9 66.3-71.1 57.2-87.6 41.5z"/>
	<path class="s2" d="m291.4 441.7q-25.4-27.4-25.4-67.3 0-40 25.4-67.1 25.6-27.4 64.5-27.4 38.9 0 64.5 27.4 25.6 27.1 25.6 67.1 0 39.9-25.6 67.3-25.6 27.4-64.5 27.4-38.9 0-64.5-27.4zm9.2-126.5q-21.2 23.8-21.2 59.2 0 35.3 21.2 59.3 21.5 24.1 55.3 24.1 34 0 55.3-24.1 21.5-24 21.5-59.3 0-35.4-21.5-59.2-21.3-24-55.3-24-34.1 0-55.3 24z"/>
	<path class="s2" d="m411.3 323.5q1.7-2.3 3.7-3.3 2.1-1.1 3.7-0.4 4.1 1.6 5.3 3.8 1.2 2.3-0.3 6.1-0.4 1.1-4.1 5.4-8.1 9.9-19 24.9-2.6 3.4-4.4 5.9-1.7 2.7-3 4.4-7.6 11.1-12.2 16.5-1.4 1.5-3.6 1.9-2.2 0.2-4.2-0.5-2-0.8-3.7-2.5-1.6-1.7-1.9-3.2-0.9-8.7-1.5-23.4-0.4-14.7 0.3-25.3-14.7 15.8-27.4 31-0.7 0.9-1.7 2-0.8 1.1-1.8 2.2-1.6 1.5-3.5 1.9-2 0.4-3.9-0.4-2.1-0.8-3.8-2.4-1.7-1.8-1.9-3.2-0.5-3.3-0.2-9.5 0.5-6.1 1.5-17.1l1-11.3q0.7-11.1 2.5-22.4 1.8-11.2 2.6-13.3 1-2.5 4.1-2.9 3.1-0.6 5.6 0.4 1.4 0.6 2.6 2.1 1.2 1.5 0.8 3.8-4.5 23.9-7.9 56.5 6-6.2 13.8-15.3 8-9.1 15.4-17.8l2.5-3.1q1.2-1.6 3.5-1.8 2.5-0.3 4.5 0.5 2.6 1 3.8 3 1.1 1.9 1 3.7-0.1 0.5-0.8 16-0.7 15.6 0.3 32 5.1-6.1 14.5-20.3l4.9-7.1q8.1-11.4 12.9-17.5z"/>
	<g>
		<path class="s3" d="m20 381l125-56v119z"/>
		<path id="&gt;" class="s2" aria-label="&gt;"  d="m18.7 379.1v18.5l106.7 45.6v-19.7l-84.5-35.1 84.5-34.7v-19.7z"/>
	</g>
	<g>
		<path id="&gt; copy" class="s2" aria-label="&gt;"  d="m478.7 374.1v18.5l106.7 45.6v-19.7l-84.5-35.1 84.5-34.7v-19.7z"/>
	</g>
</svg>