<svg version="1.2" xmlns="http://www.w3.org/2000/svg" viewBox="0 0 500 220" width="500" height="220"><style>tspan{white-space:pre}.a{fill:#252525}.b{fill:#393939}.c{fill:#474747}.d{font-size: 6px;fill: #ffffff;font-family: "Arial"}.e{fill:#5d5d5d}.f{fill:#aeaeae}.g{fill:#fff}.h{font-size: 6px;fill: #000000;font-family: "Arial"}</style><path fill-rule="evenodd" class="a" d="m0 0h83.3v220h-83.3z"/><path fill-rule="evenodd" class="b" d="m83.3 0h83.4v220h-83.4z"/><path fill-rule="evenodd" class="c" d="m166.7 0h83.3v220h-83.3z"/><text style="transform:matrix(1,0,0,1,220.072,110)" ><tspan x="-22.7" y="0" class="d">U</tspan><tspan  y="0" class="d">i</tspan><tspan  y="0" class="d"> </tspan><tspan  y="0" class="d">c</tspan><tspan  y="0" class="d">o</tspan><tspan  y="0" class="d">l</tspan><tspan  y="0" class="d">o</tspan><tspan  y="0" class="d">r</tspan><tspan  y="0" class="d">
</tspan></text><path fill-rule="evenodd" class="e" d="m250 0h83.3v220h-83.3z"/><path fill-rule="evenodd" class="f" d="m333.3 0h83.4v220h-83.4z"/><path fill-rule="evenodd" class="g" d="m416.7 0h83.3v220h-83.3z"/><text style="transform:matrix(1,0,0,1,56.564,110.639)" ><tspan x="-35.8" y="0" class="d">B</tspan><tspan  y="0" class="d">a</tspan><tspan  y="0" class="d">c</tspan><tspan  y="0" class="d">k</tspan><tspan  y="0" class="d">g</tspan><tspan  y="0" class="d">r</tspan><tspan  y="0" class="d">o</tspan><tspan  y="0" class="d">u</tspan><tspan  y="0" class="d">n</tspan><tspan  y="0" class="d">d
</tspan></text><text style="transform:matrix(1,0,0,1,143.564,110.639)" ><tspan x="-41.2" y="0" class="d">N</tspan><tspan  y="0" class="d">e</tspan><tspan  y="0" class="d">g</tspan><tspan  y="0" class="d">-</tspan><tspan  y="0" class="d">H</tspan><tspan  y="0" class="d">i</tspan><tspan  y="0" class="d">g</tspan><tspan  y="0" class="d">h</tspan><tspan  y="0" class="d">l</tspan><tspan  y="0" class="d">i</tspan><tspan  y="0" class="d">g</tspan><tspan  y="0" class="d">h</tspan><tspan  y="0" class="d">t
</tspan></text><text style="transform:matrix(1,0,0,1,475,109)" ><tspan x="-28.8" y="0" class="h">T</tspan><tspan  y="0" class="h">e</tspan><tspan  y="0" class="h">x</tspan><tspan  y="0" class="h">t</tspan><tspan  y="0" class="h"> </tspan><tspan  y="0" class="h">c</tspan><tspan  y="0" class="h">o</tspan><tspan  y="0" class="h">l</tspan><tspan  y="0" class="h">o</tspan><tspan  y="0" class="h">r
</tspan></text><text style="transform:matrix(1,0,0,1,402.259,111)" ><tspan x="-54.1" y="0" class="h">L</tspan><tspan  y="0" class="h">a</tspan><tspan  y="0" class="h">y</tspan><tspan  y="0" class="h">e</tspan><tspan  y="0" class="h">r</tspan><tspan  y="0" class="h"> </tspan><tspan  y="0" class="h">b</tspan><tspan  y="0" class="h">a</tspan><tspan  y="0" class="h">c</tspan><tspan  y="0" class="h">k</tspan><tspan  y="0" class="h">g</tspan><tspan  y="0" class="h">r</tspan><tspan  y="0" class="h">o</tspan><tspan  y="0" class="h">u</tspan><tspan  y="0" class="h">n</tspan><tspan  y="0" class="h">d</tspan><tspan  y="0" class="h">
</tspan></text><text style="transform:matrix(1,0,0,1,304.564,110.639)" ><tspan x="-27.1" y="0" class="d">H</tspan><tspan  y="0" class="d">i</tspan><tspan  y="0" class="d">g</tspan><tspan  y="0" class="d">h</tspan><tspan  y="0" class="d">l</tspan><tspan  y="0" class="d">i</tspan><tspan  y="0" class="d">g</tspan><tspan  y="0" class="d">h</tspan><tspan  y="0" class="d">t
</tspan></text></svg>